<mxfile host="app.diagrams.net" agent="Mozilla/5.0 (Macintosh; Intel Mac OS X 10.15; rv:133.0) Gecko/20100101 Firefox/133.0" version="26.0.10">
  <diagram name="Page-1" id="2h_M-MCdxb3-kLHfspu5">
    <mxGraphModel dx="1394" dy="757" grid="1" gridSize="10" guides="1" tooltips="1" connect="1" arrows="1" fold="1" page="1" pageScale="1" pageWidth="827" pageHeight="1169" math="0" shadow="0">
      <root>
        <mxCell id="0" />
        <mxCell id="1" parent="0" />
        <mxCell id="UoBy4MaZRMWQxSpglumQ-8" style="edgeStyle=orthogonalEdgeStyle;rounded=0;orthogonalLoop=1;jettySize=auto;html=1;" edge="1" parent="1" source="UoBy4MaZRMWQxSpglumQ-1" target="UoBy4MaZRMWQxSpglumQ-6">
          <mxGeometry relative="1" as="geometry" />
        </mxCell>
        <mxCell id="UoBy4MaZRMWQxSpglumQ-9" style="edgeStyle=orthogonalEdgeStyle;rounded=0;orthogonalLoop=1;jettySize=auto;html=1;" edge="1" parent="1" source="UoBy4MaZRMWQxSpglumQ-1" target="UoBy4MaZRMWQxSpglumQ-4">
          <mxGeometry relative="1" as="geometry" />
        </mxCell>
        <mxCell id="UoBy4MaZRMWQxSpglumQ-10" style="edgeStyle=orthogonalEdgeStyle;rounded=0;orthogonalLoop=1;jettySize=auto;html=1;" edge="1" parent="1" source="UoBy4MaZRMWQxSpglumQ-1" target="UoBy4MaZRMWQxSpglumQ-2">
          <mxGeometry relative="1" as="geometry" />
        </mxCell>
        <mxCell id="UoBy4MaZRMWQxSpglumQ-11" style="edgeStyle=orthogonalEdgeStyle;rounded=0;orthogonalLoop=1;jettySize=auto;html=1;" edge="1" parent="1" source="UoBy4MaZRMWQxSpglumQ-1" target="UoBy4MaZRMWQxSpglumQ-3">
          <mxGeometry relative="1" as="geometry" />
        </mxCell>
        <mxCell id="UoBy4MaZRMWQxSpglumQ-1" value="Home" style="rounded=0;whiteSpace=wrap;html=1;" vertex="1" parent="1">
          <mxGeometry x="340" y="130" width="120" height="60" as="geometry" />
        </mxCell>
        <mxCell id="UoBy4MaZRMWQxSpglumQ-2" value="GameJAM" style="rounded=0;whiteSpace=wrap;html=1;" vertex="1" parent="1">
          <mxGeometry x="40" y="280" width="120" height="60" as="geometry" />
        </mxCell>
        <mxCell id="UoBy4MaZRMWQxSpglumQ-3" value="LinkTree" style="rounded=0;whiteSpace=wrap;html=1;" vertex="1" parent="1">
          <mxGeometry x="340" y="280" width="120" height="60" as="geometry" />
        </mxCell>
        <mxCell id="UoBy4MaZRMWQxSpglumQ-4" value="MusicJAM" style="rounded=0;whiteSpace=wrap;html=1;" vertex="1" parent="1">
          <mxGeometry x="190" y="350" width="120" height="60" as="geometry" />
        </mxCell>
        <mxCell id="UoBy4MaZRMWQxSpglumQ-5" value="MediaJAM" style="rounded=0;whiteSpace=wrap;html=1;" vertex="1" parent="1">
          <mxGeometry x="480" y="350" width="120" height="60" as="geometry" />
        </mxCell>
        <mxCell id="UoBy4MaZRMWQxSpglumQ-6" value="PhotoJAM" style="rounded=0;whiteSpace=wrap;html=1;" vertex="1" parent="1">
          <mxGeometry x="620" y="280" width="120" height="60" as="geometry" />
        </mxCell>
        <mxCell id="UoBy4MaZRMWQxSpglumQ-7" style="edgeStyle=orthogonalEdgeStyle;rounded=0;orthogonalLoop=1;jettySize=auto;html=1;entryX=0.4;entryY=0.067;entryDx=0;entryDy=0;entryPerimeter=0;" edge="1" parent="1" source="UoBy4MaZRMWQxSpglumQ-1" target="UoBy4MaZRMWQxSpglumQ-5">
          <mxGeometry relative="1" as="geometry" />
        </mxCell>
      </root>
    </mxGraphModel>
  </diagram>
</mxfile>
